<?xml version="1.0" encoding="utf-8"?>
<svg viewBox="0 0 500 500" xmlns="http://www.w3.org/2000/svg">
  <defs>
    <linearGradient gradientUnits="userSpaceOnUse" x1="256" y1="26.32" x2="256" y2="486.4" id="gradient-0" spreadMethod="pad">
      <stop offset="0" style="stop-color: rgba(121, 121, 222, 1)"/>
      <stop offset="1" style="stop-color: rgba(48, 48, 194, 1)"/>
    </linearGradient>
  </defs>
  <path d="M -22.052 10.461 L 489.948 10.461 L 489.948 522.461 L -22.052 522.461 Z" fill="#ffffff" fill-opacity="0"/>
  <g class="" style="" transform="matrix(1, 0, 0, 1, -6, -6.359993)">
    <path d="M152.6 26.32L137.2 441.9 256 486.4l118.8-44.5-15.4-415.58L256 41.09 152.6 26.32zM64 89c-36 0-36 78 0 78h9.51l13-39-13-39H64zm374.5 0l-13 39 13 39h9.5c36 0 36-78 0-78h-9.5zM192 112a16 16 0 0 1 16 16 16 16 0 0 1-16 16 16 16 0 0 1-16-16 16 16 0 0 1 16-16zm128 0a16 16 0 0 1 16 16 16 16 0 0 1-16 16 16 16 0 0 1-16-16 16 16 0 0 1 16-16zm-217.6 7l2.1 6.2 1 2.8-3 9h28l.7-18h-28.8zm278.4 0l.7 18h28.1l-2.1-6.2-1-2.8 3-9h-28.7zM60 217c-36 0-36 78 0 78h9.51l13-39-13-39H60zm382.5 0l-13 39 13 39h9.5c36 0 36-78 0-78h-9.5zM192 240a16 16 0 0 1 16 16 16 16 0 0 1-16 16 16 16 0 0 1-16-16 16 16 0 0 1 16-16zm128 0a16 16 0 0 1 16 16 16 16 0 0 1-16 16 16 16 0 0 1-16-16 16 16 0 0 1 16-16zm-221.56 7l2.06 6.2 1 2.8-3 9h27.3l.7-18H98.44zm287.06 0l.7 18h27.4l-2.1-6.2-1-2.8 3-9h-28zM56 345c-36 0-36 78 0 78h9.51l13-39-13-39H56zm390.5 0l-13 39 13 39h9.5c36 0 36-78 0-78h-9.5zM192 368a16 16 0 0 1 16 16 16 16 0 0 1-16 16 16 16 0 0 1-16-16 16 16 0 0 1 16-16zm128 0a16 16 0 0 1 16 16 16 16 0 0 1-16 16 16 16 0 0 1-16-16 16 16 0 0 1 16-16zm-225.53 7l2.07 6.2.95 2.8-3 9h26.61l.6-18H94.47zm295.83 0l.6 18h26.7l-2.1-6.2-1-2.8 3-9h-27.2z" fill-opacity="1" style="fill: url(#gradient-0);"/>
  </g>
</svg>